<svg xmlns="http://www.w3.org/2000/svg" viewBox="0 0 368.01 189.85"><defs><style>.cls-1{fill:#4d93d1;}.cls-2{fill:#326ba8;}.cls-3{fill:#226bb0;}</style></defs><g id="OBJECTS"><path class="cls-1" d="M162.22,125l25.35-37.56h0l19.58-29v0L218,42.3a8.22,8.22,0,1,0-13.62-9.2L196,45.59H79.69a8.22,8.22,0,1,0,0,16.43h105.2L176.4,74.61H128.9a8.22,8.22,0,1,0,0,16.43h36.4l-8.5,12.59h-103a8.22,8.22,0,0,0,0,16.43h91.93l-.22.32a8.23,8.23,0,0,0,0,9.19l2.08,3.07H79.69a8.22,8.22,0,1,0,0,16.43h79l8.5,12.59H125.24a8.22,8.22,0,1,0,0,16.43h53L186,189.61H90.85a8.22,8.22,0,1,0,0,16.43H197.12l6.53,9.67a8.22,8.22,0,0,0,13.62-9.2l-9-13.27h0Z" transform="translate(-22.98 -29.48)"/><path class="cls-2" d="M297.85,29.84a8.21,8.21,0,0,0-10.24,5.48L235.15,208.73A8.2,8.2,0,0,0,240.63,219a7.86,7.86,0,0,0,2.38.36,8.21,8.21,0,0,0,7.86-5.84L303.34,40.08A8.22,8.22,0,0,0,297.85,29.84Z" transform="translate(-22.98 -29.48)"/><path class="cls-1" d="M389.58,119.24,331.43,33.1a8.22,8.22,0,0,0-13.62,9.2l55.05,81.53L317,206.51a8.21,8.21,0,1,0,13.61,9.2l58.93-87.28A8.19,8.19,0,0,0,389.58,119.24Z" transform="translate(-22.98 -29.48)"/><path class="cls-3" d="M102.35,169.88a8.22,8.22,0,0,0-8.22-8.22H31.19a8.22,8.22,0,0,0,0,16.43H94.13A8.22,8.22,0,0,0,102.35,169.88Z" transform="translate(-22.98 -29.48)"/><path class="cls-3" d="M36,91H97.29a8.22,8.22,0,0,0,0-16.43H36A8.22,8.22,0,1,0,36,91Z" transform="translate(-22.98 -29.48)"/></g></svg>