<svg xmlns="http://www.w3.org/2000/svg" xmlns:xlink="http://www.w3.org/1999/xlink" width="500" zoomAndPan="magnify" viewBox="0 0 375 374.999991" height="500" preserveAspectRatio="xMidYMid meet" version="1.0"><defs><clipPath id="5826cd3bb8"><path d="M 187 116 L 366.785156 116 L 366.785156 295.074219 L 187 295.074219 Z M 187 116 " clip-rule="nonzero"/></clipPath><clipPath id="e6104c5c67"><path d="M 8.285156 25.824219 L 188 25.824219 L 188 205 L 8.285156 205 Z M 8.285156 25.824219 " clip-rule="nonzero"/></clipPath><clipPath id="c3e28156ce"><path d="M 187 25.824219 L 307 25.824219 L 307 146 L 187 146 Z M 187 25.824219 " clip-rule="nonzero"/></clipPath><clipPath id="88823739e7"><path d="M 68 175 L 188 175 L 188 295.074219 L 68 295.074219 Z M 68 175 " clip-rule="nonzero"/></clipPath></defs><g clip-path="url(#5826cd3bb8)"><path fill="#29abe2" d="M 366.597656 160.464844 L 231.941406 295.082031 L 187.546875 250.699219 L 247.769531 190.503906 L 277.8125 160.464844 L 322.214844 116.089844 Z M 366.597656 160.464844 " fill-opacity="1" fill-rule="nonzero"/></g><g clip-path="url(#e6104c5c67)"><path fill="#29abe2" d="M 8.5 160.453125 L 143.15625 25.839844 L 187.546875 70.222656 L 127.332031 130.417969 L 97.285156 160.453125 L 52.882812 204.828125 Z M 8.5 160.453125 " fill-opacity="1" fill-rule="nonzero"/></g><path fill="#0071bc" d="M 141.65625 160.460938 L 187.546875 114.582031 L 233.4375 160.460938 L 187.546875 206.339844 Z M 141.65625 160.460938 " fill-opacity="1" fill-rule="nonzero"/><g clip-path="url(#c3e28156ce)"><path fill="#0071bc" d="M 306.984375 100.867188 L 262.589844 145.25 L 187.546875 70.21875 L 231.941406 25.824219 Z M 306.984375 100.867188 " fill-opacity="1" fill-rule="nonzero"/></g><g clip-path="url(#88823739e7)"><path fill="#0071bc" d="M 68.113281 220.054688 L 112.503906 175.667969 L 187.546875 250.703125 L 143.15625 295.09375 Z M 68.113281 220.054688 " fill-opacity="1" fill-rule="nonzero"/></g></svg>